<?xml version="1.0" encoding="UTF-8" standalone="no"?>
<!-- Created with Inkscape (http://www.inkscape.org/) -->

<svg
   width="71.236435mm"
   height="33.325348mm"
   viewBox="0 0 71.236434 33.325348"
   version="1.1"
   id="svg5"
   inkscape:version="1.2.2 (732a01da63, 2022-12-09)"
   sodipodi:docname="kosmo_logo.svg"
   inkscape:export-filename="kosmo_logo.png"
   inkscape:export-xdpi="97"
   inkscape:export-ydpi="97"
   xmlns:inkscape="http://www.inkscape.org/namespaces/inkscape"
   xmlns:sodipodi="http://sodipodi.sourceforge.net/DTD/sodipodi-0.dtd"
   xmlns="http://www.w3.org/2000/svg"
   xmlns:svg="http://www.w3.org/2000/svg">
  <sodipodi:namedview
     id="namedview7"
     pagecolor="#ffffff"
     bordercolor="#000000"
     borderopacity="0.25"
     inkscape:showpageshadow="2"
     inkscape:pageopacity="0.0"
     inkscape:pagecheckerboard="0"
     inkscape:deskcolor="#d1d1d1"
     inkscape:document-units="mm"
     showgrid="false"
     inkscape:zoom="1.4912878"
     inkscape:cx="197.48033"
     inkscape:cy="59.679963"
     inkscape:window-width="1278"
     inkscape:window-height="953"
     inkscape:window-x="760"
     inkscape:window-y="28"
     inkscape:window-maximized="0"
     inkscape:current-layer="layer1"
     showguides="true" />
  <defs
     id="defs2">
    <inkscape:path-effect
       effect="powerclip"
       id="path-effect11353"
       is_visible="true"
       lpeversion="1"
       inverse="true"
       flatten="false"
       hide_clip="false"
       message="Usar a regra de preenchimento par ou ímpar na caixa de diálogo &lt;b&gt;preenchimento e contorno&lt;/b&gt; se nenhum resultado nivelar após converter o clipe em caminhos." />
    <rect
       x="77.785118"
       y="292.36475"
       width="203.85065"
       height="63.032764"
       id="rect1570" />
    <rect
       x="77.785118"
       y="292.36475"
       width="203.85065"
       height="63.032764"
       id="rect1570-1" />
    <clipPath
       clipPathUnits="userSpaceOnUse"
       id="clipPath11349">
      <path
         style="font-variation-settings:'opsz' 60, 'wght' 700;display:none;fill:#7d7d7d;fill-opacity:1;fill-rule:evenodd;stroke:none;stroke-width:1.77;stroke-dasharray:none;stroke-dashoffset:0;stroke-opacity:1"
         d="m 46.222112,13.509099 -0.658635,-0.09409 -0.78409,3.167725 0.689999,3.82636 0.940908,-0.156818 -0.470453,-3.449997 z"
         id="path11351" />
      <path
         id="lpe_path-effect11353"
         style="font-variation-settings:'opsz' 60, 'wght' 700;display:inline;fill:#7d7d7d;fill-opacity:1;fill-rule:evenodd;stroke:none;stroke-width:1.77;stroke-dasharray:none;stroke-dashoffset:0;stroke-opacity:1"
         class="powerclip"
         d="M 40.405355,-4.8517982 H 83.327028 V 38.47355 H 40.405355 Z m 5.816757,18.3608972 -0.658635,-0.09409 -0.78409,3.167725 0.689999,3.82636 0.940908,-0.156818 -0.470453,-3.449997 z" />
    </clipPath>
  </defs>
  <g
     inkscape:label="Camada 1"
     inkscape:groupmode="layer"
     id="layer1"
     transform="translate(-7.1744197,-0.1482018)">
    <path
       id="path4024"
       style="font-variation-settings:'opsz' 60, 'wght' 700;display:inline;fill:none;stroke:#000000;stroke-width:0.215;stroke-dasharray:1.29, 0.43"
       d="M 78.219528,16.810894 A 16.353436,16.555334 0 0 1 61.866093,33.366228 16.353436,16.555334 0 0 1 45.512657,16.810894 16.353436,16.555334 0 0 1 61.866093,0.25555992 16.353436,16.555334 0 0 1 78.219528,16.810894 Z"
       clip-path="url(#clipPath11349)"
       inkscape:original-d="M 78.219528,16.810894 A 16.353436,16.555334 0 0 1 61.866093,33.366228 16.353436,16.555334 0 0 1 45.512657,16.810894 16.353436,16.555334 0 0 1 61.866093,0.25555992 16.353436,16.555334 0 0 1 78.219528,16.810894 Z"
       inkscape:path-effect="#path-effect11353"
       fill="currentColor" />
    <path
       id="path3802"
       style="font-variation-settings:'opsz' 60, 'wght' 700;display:inline;fill:#000000;fill-opacity:1;stroke-width:0.254554"
       d="M 61.866172,4.6202803 A 12.190604,12.190604 0 0 0 49.675701,16.810751 12.190604,12.190604 0 0 0 61.866172,29.001221 12.190604,12.190604 0 0 0 74.056642,16.810751 12.190604,12.190604 0 0 0 61.866172,4.6202803 Z m -4.510836,4.6415771 0.196887,0.1669149 -0.06098,3.1062707 v 7.348905 l 0.788066,0.12144 v 0.333313 l -2.80293,0.196887 v -1.199927 c -0.101394,0.170612 -0.212146,0.328592 -0.333313,0.472839 -0.212138,0.242443 -0.454856,0.429366 -0.727604,0.56069 -0.272748,0.131323 -0.581031,0.196887 -0.924492,0.196887 -0.515191,0 -0.969771,-0.131644 -1.363741,-0.394291 -0.383868,-0.272748 -0.686749,-0.666649 -0.908988,-1.18184 -0.22224,-0.525294 -0.333313,-1.161396 -0.333313,-1.908928 0,-0.808143 0.126243,-1.500557 0.378788,-2.076359 0.252545,-0.585904 0.591167,-1.035082 1.015442,-1.348238 0.434377,-0.313155 0.929066,-0.469739 1.484664,-0.469739 0.28285,0 0.540738,0.05528 0.773079,0.166399 0.242444,0.101017 0.464591,0.267886 0.666626,0.500227 0.106617,0.12261 0.20746,0.265371 0.302824,0.427365 v -3.775997 l -0.894,-0.242363 V 9.9894616 Z m 4.969723,3.9248246 c 0.575801,0 1.071008,0.115958 1.48518,0.3483 0.424276,0.23234 0.747728,0.555794 0.969967,0.969966 0.222239,0.404072 0.333313,0.868939 0.333313,1.39423 0,0.151527 -0.0054,0.272369 -0.0155,0.363286 -0.0101,0.09092 -0.03016,0.201989 -0.06046,0.333313 h -3.894335 c -5e-6,0.0053 0,0.01019 0,0.0155 0,0.606106 0.09102,1.121367 0.272851,1.545642 0.181833,0.424274 0.429436,0.74721 0.74259,0.96945 0.313155,0.212136 0.671832,0.318326 1.075904,0.318326 0.34346,0 0.646342,-0.06556 0.908988,-0.196887 0.272749,-0.141425 0.510067,-0.323464 0.712101,-0.545703 l 0.227377,0.181901 c -0.181833,0.39397 -0.414267,0.717422 -0.697115,0.969967 -0.282851,0.242442 -0.596017,0.419081 -0.939478,0.5302 -0.343461,0.121222 -0.711906,0.181901 -1.105876,0.181901 -0.616208,0 -1.176979,-0.13653 -1.682067,-0.409277 -0.494988,-0.282851 -0.894291,-0.691921 -1.197343,-1.227316 -0.292952,-0.535393 -0.43925,-1.187184 -0.43925,-1.954919 0,-0.828346 0.156584,-1.520245 0.469739,-2.075842 0.313154,-0.5657 0.722227,-0.989941 1.227315,-1.272791 0.50509,-0.292952 1.040403,-0.43925 1.606104,-0.43925 z m 3.309875,0.211874 h 3.894336 v 0.333313 l -1.053166,0.183968 1.5844,4.325317 1.544091,-4.369759 -0.999938,-0.139526 v -0.333313 h 2.242757 v 0.333313 l -0.764295,0.140043 -2.372465,6.481775 H 68.87763 l -2.586405,-6.486943 -0.656291,-0.134875 z m -3.279386,0.181901 c -0.22224,0 -0.429217,0.0959 -0.621151,0.287838 -0.181832,0.181831 -0.328647,0.494999 -0.439767,0.939477 -0.08302,0.357004 -0.131972,0.827036 -0.146761,1.409216 h 1.086239 c 0.414174,0 0.702401,-0.07045 0.86403,-0.211873 0.161628,-0.151527 0.242362,-0.434354 0.242362,-0.848527 0,-0.383868 -0.04062,-0.687266 -0.121439,-0.909505 -0.08082,-0.232341 -0.196773,-0.398693 -0.348299,-0.499711 -0.141426,-0.11112 -0.31318,-0.166915 -0.515214,-0.166915 z m -7.940084,0.621151 c -0.252545,0 -0.489862,0.09102 -0.712101,0.272851 -0.212138,0.181833 -0.383891,0.474945 -0.515214,0.879016 -0.121222,0.404072 -0.181902,0.939386 -0.181902,1.606104 0,0.646514 0.05579,1.156889 0.166915,1.530656 0.121222,0.373766 0.287574,0.641423 0.499711,0.803051 0.22224,0.161629 0.469843,0.242363 0.742591,0.242363 0.262647,0 0.499964,-0.08613 0.712101,-0.257865 0.121184,-0.103872 0.237522,-0.221156 0.348816,-0.3514 v -4.212146 c -0.132421,-0.13649 -0.253632,-0.241779 -0.363802,-0.315226 -0.181833,-0.131324 -0.414265,-0.197404 -0.697115,-0.197404 z"
       fill="currentColor" />
    <g
       aria-label="kosmo"
       transform="matrix(1.2627237,0,0,1.2627237,-91.349794,-362.18211)"
       id="text1568"
       style="font-size:12px;font-family:'Source Serif 4';-inkscape-font-specification:'Source Serif 4, @opsz=60.0,wght=700';font-variation-settings:'opsz' 60, 'wght' 700;white-space:pre;shape-inside:url(#rect1570);display:inline;stroke-width:1.00022"
       fill="currentColor">
      <path
         d="m 78.073156,302.93307 v -0.264 l 1.02,-0.168 h 0.888 l 0.972,0.168 v 0.264 z m 0.612,0 q 0.012,-0.228 0.024,-0.528 0.024,-0.312 0.024,-0.648 0.012,-0.348 0.012,-0.684 0,-0.348 0,-0.648 v -5.28 l -0.72,-0.192 v -0.216 l 2.196,-0.576 0.168,0.132 -0.048,2.46 v 3.672 q 0,0.3 0,0.648 0,0.336 0,0.684 0.012,0.336 0.024,0.648 0.024,0.3 0.036,0.528 z m 0.828,-1.584 v -0.432 h 0.06 l 1.632,-1.74 1.632,-1.74 h 0.468 z m 2.448,1.584 -1.296,-2.952 1.152,-1.152 1.764,3.732 0.552,0.108 v 0.264 z m -0.504,-5.232 v -0.264 h 2.412 v 0.264 l -1.068,0.18 h -0.3 z"
         id="path11204" />
      <path
         d="m 87.139214,303.11307 q -0.864,0 -1.488,-0.36 -0.612,-0.372 -0.948,-1.02 -0.324,-0.66 -0.324,-1.536 0,-0.876 0.348,-1.536 0.36,-0.66 0.984,-1.02 0.624,-0.372 1.428,-0.372 0.888,0 1.5,0.36 0.612,0.36 0.936,1.02 0.336,0.648 0.336,1.536 0,0.864 -0.36,1.524 -0.36,0.66 -0.984,1.032 -0.624,0.372 -1.428,0.372 z m 0,-0.312 q 0.336,0 0.564,-0.24 0.24,-0.252 0.36,-0.816 0.12,-0.576 0.12,-1.56 0,-1.008 -0.12,-1.572 -0.12,-0.564 -0.36,-0.804 -0.228,-0.24 -0.564,-0.24 -0.324,0 -0.564,0.252 -0.228,0.24 -0.36,0.816 -0.12,0.564 -0.12,1.56 0,0.984 0.12,1.56 0.132,0.564 0.36,0.804 0.24,0.24 0.564,0.24 z"
         id="path11206" />
      <path
         d="m 92.527206,303.11307 q -0.504,0 -0.936,-0.132 -0.432,-0.132 -0.852,-0.372 l 0.048,-1.488 h 0.24 l 0.648,1.596 h -0.408 v -0.252 q 0.3,0.168 0.564,0.264 0.264,0.096 0.684,0.096 0.324,0 0.552,-0.108 0.228,-0.108 0.348,-0.312 0.132,-0.204 0.132,-0.48 0,-0.432 -0.324,-0.648 -0.312,-0.216 -0.744,-0.408 l -0.336,-0.144 q -0.336,-0.144 -0.648,-0.336 -0.312,-0.204 -0.516,-0.516 -0.204,-0.324 -0.204,-0.828 0,-0.516 0.228,-0.912 0.228,-0.408 0.696,-0.636 0.468,-0.228 1.164,-0.228 0.468,0 0.828,0.108 0.372,0.108 0.732,0.312 l -0.048,1.416 h -0.24 l -0.636,-1.536 h 0.42 v 0.36 q -0.228,-0.204 -0.468,-0.288 -0.24,-0.084 -0.588,-0.084 -0.432,0 -0.696,0.216 -0.252,0.204 -0.252,0.588 0,0.432 0.324,0.66 0.324,0.216 0.756,0.396 l 0.336,0.144 q 0.348,0.156 0.66,0.348 0.324,0.192 0.528,0.516 0.204,0.312 0.204,0.828 0,0.588 -0.264,1.008 -0.252,0.408 -0.744,0.636 -0.492,0.216 -1.188,0.216 z"
         id="path11208" />
      <path
         d="m 95.407202,302.93307 v -0.264 l 1.02,-0.168 h 0.888 l 0.972,0.168 v 0.264 z m 0.612,0 q 0.024,-0.312 0.036,-0.744 0.012,-0.432 0.012,-0.9 0.012,-0.468 0.012,-0.864 v -0.372 q 0,-0.372 0,-0.66 0,-0.3 -0.012,-0.552 0,-0.264 -0.012,-0.528 l -0.696,-0.204 v -0.216 l 2.148,-0.624 0.168,0.12 v 1.08 0.096 1.86 q 0,0.396 0,0.864 0.012,0.468 0.024,0.9 0.012,0.432 0.036,0.744 z m 2.796,0 v -0.264 l 0.984,-0.168 h 0.875998 l 0.984,0.168 v 0.264 z m 0.564,0 q 0.036,-0.312 0.048,-0.744 0.012,-0.432 0.012,-0.9 0.012,-0.468 0.012,-0.864 v -1.284 q 0,-0.552 -0.18,-0.756 -0.168,-0.204 -0.528,-0.204 -0.228,0 -0.468,0.096 -0.228,0.084 -0.456,0.264 -0.228,0.168 -0.444,0.408 l -0.024,-0.3 h 0.108 q 0.3,-0.468 0.612,-0.768 0.324,-0.312 0.696,-0.456 0.372,-0.156 0.78,-0.156 0.683998,0 1.079998,0.444 0.408,0.432 0.408,1.392 v 1.32 q 0,0.396 0,0.864 0.012,0.468 0.024,0.9 0.012,0.432 0.048,0.744 z m 2.795998,0 v -0.264 l 0.984,-0.168 h 0.876 l 0.984,0.168 v 0.264 z m 0.564,0 q 0.036,-0.312 0.048,-0.744 0.024,-0.432 0.024,-0.9 0,-0.468 0,-0.864 v -1.284 q 0,-0.552 -0.18,-0.756 -0.168,-0.204 -0.528,-0.204 -0.216,0 -0.456,0.096 -0.24,0.096 -0.468,0.276 -0.228,0.168 -0.432,0.42 l -0.036,-0.324 h 0.12 q 0.288,-0.468 0.612,-0.768 0.324,-0.312 0.684,-0.456 0.372,-0.156 0.792,-0.156 0.684,0 1.08,0.444 0.408,0.432 0.408,1.392 v 1.32 q 0,0.396 0,0.864 0,0.468 0.012,0.9 0.024,0.432 0.048,0.744 z"
         id="path11210" />
      <path
         d="m 108.4632,303.11307 q -0.864,0 -1.488,-0.36 -0.612,-0.372 -0.948,-1.02 -0.324,-0.66 -0.324,-1.536 0,-0.876 0.348,-1.536 0.36,-0.66 0.984,-1.02 0.624,-0.372 1.428,-0.372 0.888,0 1.5,0.36 0.612,0.36 0.936,1.02 0.336,0.648 0.336,1.536 0,0.864 -0.36,1.524 -0.36,0.66 -0.984,1.032 -0.624,0.372 -1.428,0.372 z m 0,-0.312 q 0.336,0 0.564,-0.24 0.24,-0.252 0.36,-0.816 0.12,-0.576 0.12,-1.56 0,-1.008 -0.12,-1.572 -0.12,-0.564 -0.36,-0.804 -0.228,-0.24 -0.564,-0.24 -0.324,0 -0.564,0.252 -0.228,0.24 -0.36,0.816 -0.12,0.564 -0.12,1.56 0,0.984 0.12,1.56 0.132,0.564 0.36,0.804 0.24,0.24 0.564,0.24 z"
         id="path11212" />
    </g>
    <circle
       style="font-variation-settings:'opsz' 60, 'wght' 700;fill:#000000;fill-opacity:1;stroke-width:0.264583"
       id="path3962"
       cx="77.469948"
       cy="21.653278"
       r="0.94090819"
       fill="currentColor" />
  </g>
</svg>
